<svg xmlns="http://www.w3.org/2000/svg" viewBox="0 0 32 32" fill="none">
  <rect width="32" height="32" rx="7" fill="#ede9fe"/>
  <path
    fill="#6366f1"
    d="M16 7c-2.2 0-4.2.9-5.7 2.3C8.8 8 6.8 7 4.5 7 3.1 7 2 8.1 2 9.5v15.8c0 .8.7 1.5 1.5 1.5.8 0 1.5-.7 1.5-1.5v-14c1.5 0 2.9.6 4 1.6l.5.5.5-.5c1.1-1 2.5-1.6 4-1.6v14c0 .8.7 1.5 1.5 1.5s1.5-.7 1.5-1.5V9.5C17 8.1 15.9 7 14.5 7 12.2 7 10.2 8 9.7 9.3 11.8 7.9 13.8 7 16 7z"
  />
  <path
    fill="#a78bfa"
    d="M22.5 5.5l.6 1.2 1.2.6-1.2.6-.6 1.2-.6-1.2-1.2-.6 1.2-.6.6-1.2z"
  />
</svg>
